<svg width="180" height="45" viewBox="0 0 180 45" fill="none" xmlns="http://www.w3.org/2000/svg">
<rect width="180" height="45" rx="22.5" fill="url(#paint0_linear_124_241)"/>
<path d="M30.2627 30H26.8574L26.8789 27.4863H30.2627C31.1077 27.4863 31.8203 27.2965 32.4004 26.917C32.9805 26.5303 33.4173 25.9681 33.7109 25.2305C34.0117 24.4928 34.1621 23.6012 34.1621 22.5557V21.793C34.1621 20.9909 34.0762 20.2855 33.9043 19.6768C33.7396 19.068 33.4925 18.556 33.1631 18.1406C32.8337 17.7253 32.429 17.4137 31.9492 17.2061C31.4694 16.9912 30.918 16.8838 30.2949 16.8838H26.793V14.3594H30.2949C31.3405 14.3594 32.2965 14.5384 33.1631 14.8965C34.0368 15.2474 34.7923 15.7523 35.4297 16.4111C36.0671 17.07 36.5576 17.8577 36.9014 18.7744C37.2523 19.6839 37.4277 20.6973 37.4277 21.8145V22.5557C37.4277 23.6657 37.2523 24.679 36.9014 25.5957C36.5576 26.5124 36.0671 27.3001 35.4297 27.959C34.7995 28.6107 34.0439 29.1156 33.1631 29.4736C32.2894 29.8245 31.3226 30 30.2627 30ZM28.6836 14.3594V30H25.4609V14.3594H28.6836ZM39.082 24.3066V24.0811C39.082 23.2288 39.2038 22.4447 39.4473 21.7285C39.6908 21.0052 40.0452 20.3786 40.5107 19.8486C40.9762 19.3187 41.5492 18.9069 42.2295 18.6133C42.9098 18.3125 43.6904 18.1621 44.5713 18.1621C45.4521 18.1621 46.2363 18.3125 46.9238 18.6133C47.6113 18.9069 48.1878 19.3187 48.6533 19.8486C49.126 20.3786 49.484 21.0052 49.7275 21.7285C49.971 22.4447 50.0928 23.2288 50.0928 24.0811V24.3066C50.0928 25.1517 49.971 25.9359 49.7275 26.6592C49.484 27.3753 49.126 28.002 48.6533 28.5391C48.1878 29.069 47.6149 29.4808 46.9346 29.7744C46.2542 30.068 45.4736 30.2148 44.5928 30.2148C43.7119 30.2148 42.9277 30.068 42.2402 29.7744C41.5599 29.4808 40.9834 29.069 40.5107 28.5391C40.0452 28.002 39.6908 27.3753 39.4473 26.6592C39.2038 25.9359 39.082 25.1517 39.082 24.3066ZM42.1758 24.0811V24.3066C42.1758 24.7936 42.2188 25.2484 42.3047 25.6709C42.3906 26.0934 42.5267 26.4658 42.7129 26.7881C42.9062 27.1032 43.1569 27.3503 43.4648 27.5293C43.7728 27.7083 44.1488 27.7979 44.5928 27.7979C45.0225 27.7979 45.3913 27.7083 45.6992 27.5293C46.0072 27.3503 46.2542 27.1032 46.4404 26.7881C46.6266 26.4658 46.7627 26.0934 46.8486 25.6709C46.9417 25.2484 46.9883 24.7936 46.9883 24.3066V24.0811C46.9883 23.6084 46.9417 23.1644 46.8486 22.749C46.7627 22.3265 46.623 21.9541 46.4297 21.6318C46.2435 21.3024 45.9964 21.0446 45.6885 20.8584C45.3805 20.6722 45.0081 20.5791 44.5713 20.5791C44.1344 20.5791 43.762 20.6722 43.4541 20.8584C43.1533 21.0446 42.9062 21.3024 42.7129 21.6318C42.5267 21.9541 42.3906 22.3265 42.3047 22.749C42.2188 23.1644 42.1758 23.6084 42.1758 24.0811ZM55.3135 26.9922L57.7305 18.377H59.6963L59.0625 21.7607L56.6455 30H55.002L55.3135 26.9922ZM54.0889 18.377L55.8184 26.9814L55.9795 30H54.0459L51.1025 18.377H54.0889ZM61.9092 26.8418L63.5957 18.377H66.5928L63.6494 30H61.7266L61.9092 26.8418ZM59.9648 18.377L62.3711 26.9277L62.7041 30H61.0498L58.6328 21.7715L58.0205 18.377H59.9648ZM71.1797 20.8584V30H68.0859V18.377H70.9863L71.1797 20.8584ZM70.7285 23.7803H69.8906C69.8906 22.9209 70.0016 22.1475 70.2236 21.46C70.4456 20.7653 70.7572 20.1745 71.1582 19.6875C71.5592 19.1934 72.0355 18.8174 72.5869 18.5596C73.1455 18.2946 73.7686 18.1621 74.4561 18.1621C75.0003 18.1621 75.498 18.2409 75.9492 18.3984C76.4004 18.556 76.7871 18.8066 77.1094 19.1504C77.4388 19.4941 77.6895 19.9489 77.8613 20.5146C78.0404 21.0804 78.1299 21.7715 78.1299 22.5879V30H75.0146V22.5771C75.0146 22.0615 74.943 21.6605 74.7998 21.374C74.6566 21.0876 74.4453 20.887 74.166 20.7725C73.8939 20.6507 73.5573 20.5898 73.1562 20.5898C72.7409 20.5898 72.3792 20.6722 72.0713 20.8369C71.7705 21.0016 71.5199 21.2308 71.3193 21.5244C71.126 21.8109 70.9792 22.1475 70.8789 22.5342C70.7786 22.9209 70.7285 23.3363 70.7285 23.7803ZM83.748 13.5V30H80.6436V13.5H83.748ZM85.8105 24.3066V24.0811C85.8105 23.2288 85.9323 22.4447 86.1758 21.7285C86.4193 21.0052 86.7738 20.3786 87.2393 19.8486C87.7048 19.3187 88.2777 18.9069 88.958 18.6133C89.6383 18.3125 90.4189 18.1621 91.2998 18.1621C92.1807 18.1621 92.9648 18.3125 93.6523 18.6133C94.3398 18.9069 94.9163 19.3187 95.3818 19.8486C95.8545 20.3786 96.2126 21.0052 96.4561 21.7285C96.6995 22.4447 96.8213 23.2288 96.8213 24.0811V24.3066C96.8213 25.1517 96.6995 25.9359 96.4561 26.6592C96.2126 27.3753 95.8545 28.002 95.3818 28.5391C94.9163 29.069 94.3434 29.4808 93.6631 29.7744C92.9827 30.068 92.2021 30.2148 91.3213 30.2148C90.4404 30.2148 89.6562 30.068 88.9688 29.7744C88.2884 29.4808 87.7119 29.069 87.2393 28.5391C86.7738 28.002 86.4193 27.3753 86.1758 26.6592C85.9323 25.9359 85.8105 25.1517 85.8105 24.3066ZM88.9043 24.0811V24.3066C88.9043 24.7936 88.9473 25.2484 89.0332 25.6709C89.1191 26.0934 89.2552 26.4658 89.4414 26.7881C89.6348 27.1032 89.8854 27.3503 90.1934 27.5293C90.5013 27.7083 90.8773 27.7979 91.3213 27.7979C91.751 27.7979 92.1198 27.7083 92.4277 27.5293C92.7357 27.3503 92.9827 27.1032 93.1689 26.7881C93.3551 26.4658 93.4912 26.0934 93.5771 25.6709C93.6702 25.2484 93.7168 24.7936 93.7168 24.3066V24.0811C93.7168 23.6084 93.6702 23.1644 93.5771 22.749C93.4912 22.3265 93.3516 21.9541 93.1582 21.6318C92.972 21.3024 92.7249 21.0446 92.417 20.8584C92.109 20.6722 91.7367 20.5791 91.2998 20.5791C90.863 20.5791 90.4906 20.6722 90.1826 20.8584C89.8818 21.0446 89.6348 21.3024 89.4414 21.6318C89.2552 21.9541 89.1191 22.3265 89.0332 22.749C88.9473 23.1644 88.9043 23.6084 88.9043 24.0811ZM104.996 27.3789V22.2012C104.996 21.8288 104.935 21.5101 104.813 21.2451C104.692 20.973 104.502 20.7617 104.244 20.6113C103.993 20.4609 103.668 20.3857 103.267 20.3857C102.923 20.3857 102.626 20.4466 102.375 20.5684C102.124 20.6829 101.931 20.8512 101.795 21.0732C101.659 21.2881 101.591 21.5423 101.591 21.8359H98.4971C98.4971 21.3418 98.6117 20.8727 98.8408 20.4287C99.07 19.9847 99.403 19.5944 99.8398 19.2578C100.277 18.9141 100.796 18.6455 101.397 18.4521C102.006 18.2588 102.687 18.1621 103.438 18.1621C104.341 18.1621 105.143 18.3125 105.845 18.6133C106.547 18.9141 107.098 19.3652 107.499 19.9668C107.907 20.5684 108.111 21.3203 108.111 22.2227V27.1963C108.111 27.8337 108.151 28.3564 108.229 28.7646C108.308 29.1657 108.423 29.5166 108.573 29.8174V30H105.447C105.297 29.6849 105.182 29.291 105.104 28.8184C105.032 28.3385 104.996 27.8587 104.996 27.3789ZM105.404 22.9209L105.426 24.6719H103.696C103.288 24.6719 102.934 24.7184 102.633 24.8115C102.332 24.9046 102.085 25.0371 101.892 25.209C101.698 25.3737 101.555 25.5671 101.462 25.7891C101.376 26.0111 101.333 26.2546 101.333 26.5195C101.333 26.7845 101.394 27.0244 101.516 27.2393C101.637 27.4469 101.813 27.6117 102.042 27.7334C102.271 27.848 102.54 27.9053 102.848 27.9053C103.313 27.9053 103.718 27.8122 104.062 27.626C104.405 27.4398 104.67 27.2106 104.856 26.9385C105.05 26.6663 105.15 26.4085 105.157 26.165L105.974 27.4756C105.859 27.7692 105.701 28.0736 105.501 28.3887C105.308 28.7038 105.061 29.001 104.76 29.2803C104.459 29.5524 104.097 29.778 103.675 29.957C103.252 30.1289 102.751 30.2148 102.171 30.2148C101.433 30.2148 100.764 30.068 100.162 29.7744C99.5677 29.4736 99.0951 29.0618 98.7441 28.5391C98.4004 28.0091 98.2285 27.4076 98.2285 26.7344C98.2285 26.1257 98.3431 25.585 98.5723 25.1123C98.8014 24.6396 99.138 24.2422 99.582 23.9199C100.033 23.5905 100.595 23.3434 101.269 23.1787C101.942 23.0068 102.722 22.9209 103.61 22.9209H105.404ZM117.36 27.4648V13.5H120.476V30H117.672L117.36 27.4648ZM110.013 24.3281V24.1025C110.013 23.2145 110.113 22.4089 110.313 21.6855C110.514 20.9551 110.808 20.3285 111.194 19.8057C111.581 19.2829 112.057 18.8783 112.623 18.5918C113.189 18.3053 113.833 18.1621 114.557 18.1621C115.237 18.1621 115.831 18.3053 116.34 18.5918C116.855 18.8783 117.292 19.2865 117.65 19.8164C118.016 20.3392 118.309 20.9587 118.531 21.6748C118.753 22.3838 118.914 23.1608 119.015 24.0059V24.5C118.914 25.3092 118.753 26.0612 118.531 26.7559C118.309 27.4505 118.016 28.0592 117.65 28.582C117.292 29.0977 116.855 29.4987 116.34 29.7852C115.824 30.0716 115.223 30.2148 114.535 30.2148C113.812 30.2148 113.167 30.068 112.602 29.7744C112.043 29.4808 111.57 29.069 111.184 28.5391C110.804 28.0091 110.514 27.3861 110.313 26.6699C110.113 25.9538 110.013 25.1732 110.013 24.3281ZM113.106 24.1025V24.3281C113.106 24.8079 113.142 25.2555 113.214 25.6709C113.293 26.0863 113.418 26.4551 113.59 26.7773C113.769 27.0924 113.998 27.3395 114.277 27.5186C114.564 27.6904 114.911 27.7764 115.319 27.7764C115.849 27.7764 116.286 27.6582 116.63 27.4219C116.974 27.1784 117.235 26.8454 117.414 26.4229C117.6 26.0003 117.708 25.5133 117.736 24.9619V23.5547C117.715 23.1035 117.65 22.6989 117.543 22.3408C117.443 21.9756 117.292 21.6641 117.092 21.4062C116.898 21.1484 116.655 20.9479 116.361 20.8047C116.075 20.6615 115.735 20.5898 115.341 20.5898C114.94 20.5898 114.596 20.6829 114.31 20.8691C114.023 21.0482 113.79 21.2952 113.611 21.6104C113.439 21.9255 113.311 22.2979 113.225 22.7275C113.146 23.1501 113.106 23.6084 113.106 24.1025ZM137.631 24.8115H140.843C140.778 25.8643 140.488 26.7988 139.973 27.6152C139.464 28.4316 138.752 29.069 137.835 29.5273C136.925 29.9857 135.83 30.2148 134.548 30.2148C133.545 30.2148 132.646 30.043 131.852 29.6992C131.057 29.3483 130.376 28.847 129.811 28.1953C129.252 27.5436 128.826 26.7559 128.532 25.832C128.239 24.9082 128.092 23.8734 128.092 22.7275V21.6426C128.092 20.4967 128.242 19.4619 128.543 18.5381C128.851 17.6071 129.288 16.8158 129.854 16.1641C130.426 15.5124 131.11 15.0111 131.905 14.6602C132.7 14.3092 133.588 14.1338 134.569 14.1338C135.873 14.1338 136.972 14.3701 137.867 14.8428C138.77 15.3154 139.468 15.9671 139.962 16.7979C140.463 17.6286 140.764 18.5739 140.864 19.6338H137.642C137.606 19.0036 137.48 18.4701 137.266 18.0332C137.051 17.5892 136.725 17.2562 136.288 17.0342C135.858 16.805 135.285 16.6904 134.569 16.6904C134.032 16.6904 133.563 16.7907 133.162 16.9912C132.761 17.1917 132.424 17.4961 132.152 17.9043C131.88 18.3125 131.676 18.8281 131.54 19.4512C131.411 20.0671 131.347 20.7904 131.347 21.6211V22.7275C131.347 23.5368 131.408 24.2493 131.529 24.8652C131.651 25.474 131.837 25.9896 132.088 26.4121C132.346 26.8275 132.675 27.1426 133.076 27.3574C133.484 27.5651 133.975 27.6689 134.548 27.6689C135.221 27.6689 135.776 27.5615 136.213 27.3467C136.65 27.1318 136.983 26.8132 137.212 26.3906C137.448 25.9681 137.588 25.4417 137.631 24.8115ZM148.599 26.7344L152.283 14.3594H155.871L150.425 30H148.062L148.599 26.7344ZM145.204 14.3594L148.878 26.7344L149.437 30H147.052L141.638 14.3594H145.204Z" fill="white"/>
<defs>
<linearGradient id="paint0_linear_124_241" x1="-59.7761" y1="-20.0391" x2="83.0558" y2="169.456" gradientUnits="userSpaceOnUse">
<stop stop-color="#FC4A1A"/>
<stop offset="1" stop-color="#F7B733"/>
</linearGradient>
</defs>
</svg>
